#!OML:ASF H:\GeneralSubjects\Female5\Project 1\Capture day 1\Session 1\Female5.ASF
:FULLY-SPECIFIED
:DEGREES
279
root -13.4392 15.8205 1.49322 180.206 -61.3821 -170.827
lowerback 10.2035 -0.142849 -0.12907
upperback -10.5131 0.0155106 5.31353
thorax -17.8323 0.311591 6.31409
lowerneck -12.4353 7.98508 13.4854
upperneck 27.7155 10.3884 -10.2104
head 12.535 4.56725 -4.68513
rclavicle 5.78463e-014 -2.70347e-014
rhumerus 9.15525 -28.1872 -36.2864
rradius 121.921
rwrist -15.9509
rhand -49.5332 -36.2142
rfingers 7.12502
rthumb -22.141 -64.9664
lclavicle 5.78463e-014 -2.70347e-014
lhumerus -57.3757 1.39106 76.4167
lradius 32.0215
lwrist -21.5551
lhand -27.6385 25.3475
lfingers 7.12502
lthumb -1.03677 415.325
rfemur 9.77205 21.0969 34.0019
rtibia -3.43984
rfoot -27.6406 -22.5917
rtoes -10.0902
lfemur -34.2933 7.84091 -16.1888
ltibia 25.7796
lfoot -38.0037 -4.58757
ltoes -24.0022
280
root -13.2834 15.8317 1.50269 179.428 -61.5387 -170.046
lowerback 10.0109 -0.17917 -0.196625
upperback -10.5751 -0.0345625 5.5876
thorax -17.7863 0.314544 6.68912
lowerneck -12.4809 7.89779 13.4586
upperneck 27.752 10.3724 -10.5896
head 12.5783 4.50603 -4.83652
rclavicle -4.03533e-014 5.56597e-014
rhumerus 10.6925 -32.6833 -37.0852
rradius 122.593
rwrist -16.4441
rhand -50.3781 -37.5514
rfingers 7.12502
rthumb -22.952 -66.2051
lclavicle -4.03533e-014 5.56597e-014
lhumerus -57.4244 1.36618 76.5768
lradius 31.931
lwrist -22.456
lhand -27.4877 25.5629
lfingers 7.12502
lthumb -0.891164 415.541
rfemur 9.7082 21.6164 34.7123
rtibia -3.98918
rfoot -27.8663 -23.5877
rtoes -9.54774
lfemur -34.5616 10.1877 -17.0785
ltibia 30.1085
lfoot -38.1981 -3.01272
ltoes -26.6918
281
root -13.1434 15.8338 1.51382 178.476 -61.6629 -169.058
lowerback 9.68897 -0.193425 -0.110119
upperback -10.6516 -0.0367821 5.84949
thorax -17.6758 0.313336 6.94425
lowerneck -12.5517 7.7986 13.3906
upperneck 27.8727 10.3285 -10.9017
head 12.6502 4.43291 -4.96262
rclavicle -7.35503e-015 -3.26007e-014
rhumerus 12.6523 -36.9794 -38.5831
rradius 123.219
rwrist -16.7199
rhand -50.9657 -38.6352
rfingers 7.12502
rthumb -23.5157 -67.2178
lclavicle -7.35503e-015 -3.26007e-014
lhumerus -58.6109 0.765778 77.1892
lradius 34.429
lwrist -21.646
lhand -26.7202 26.7457
lfingers 7.12502
lthumb -0.14988 416.725
rfemur 9.18613 20.7606 35.0736
rtibia -4.03955
rfoot -27.4662 -23.3644
rtoes -9.72654
lfemur -34.567 12.0323 -17.5758
ltibia 34.2653
lfoot -37.6226 -1.89213
ltoes -29.4253
282
root -13.0181 15.8296 1.52783 177.453 -61.831 -167.977
lowerback 9.39841 -0.195723 0.0587047
upperback -10.8085 -0.0145986 6.10409
thorax -17.6929 0.314532 7.14868
lowerneck -12.4674 7.61779 13.085
upperneck 27.9027 10.1791 -11.0249
head 12.6073 4.31522 -4.99062
rclavicle -3.81667e-014 -3.18055e-015
rhumerus 14.8187 -40.8905 -40.5123
rradius 123.88
rwrist -16.9775
rhand -51.7393 -39.882
rfingers 7.12502
rthumb -24.2576 -68.3674
lclavicle -3.81667e-014 -3.18055e-015
lhumerus -61.5823 -0.525603 78.4135
lradius 40.3346
lwrist -19.0938
lhand -26.0741 28.8332
lfingers 7.12502
lthumb 0.47418 418.812
rfemur 8.83368 19.7917 35.4635
rtibia -4.32952
rfoot -26.7958 -23.1786
rtoes -10.4447
lfemur -34.373 13.3006 -17.8088
ltibia 38.2804
lfoot -37.1156 -1.49328
ltoes -31.241
283
root -12.8968 15.8235 1.53858 176.546 -61.9942 -167.158
lowerback 9.23906 -0.158978 -0.00336001
upperback -10.9445 0.0263102 6.31534
thorax -17.7765 0.356876 7.43593
lowerneck -12.2749 7.39189 12.7406
upperneck 27.8007 9.96807 -11.1135
head 12.4741 4.17658 -5.00412
rclavicle -5.98342e-014 1.04958e-013
rhumerus 17.0986 -44.4037 -42.7545
rradius 124.576
rwrist -17.0851
rhand -52.9003 -42.0415
rfingers 7.12502
rthumb -25.3702 -70.3737
lclavicle -5.98342e-014 1.04958e-013
lhumerus -59.5444 -0.0251774 78.1537
lradius 38.1309
lwrist -17.9635
lhand -27.6634 28.0976
lfingers 7.12502
lthumb -1.06078 418.075
rfemur 8.57354 19.0763 35.8024
rtibia -4.48491
rfoot -26.3684 -22.7688
rtoes -9.43619
lfemur -33.8107 14.1665 -17.8692
ltibia 41.929
lfoot -36.323 -2.23482
ltoes -31.5263
284
root -12.7797 15.8175 1.5454 175.713 -62.1962 -166.559
lowerback 9.07859 -0.106949 -0.337086
upperback -10.9668 0.0488218 6.49769
thorax -17.7133 0.423261 7.83686
lowerneck -12.3002 7.18875 12.3436
upperneck 27.7876 9.74284 -11.0389
head 12.4085 4.04052 -4.94298
rclavicle -4.13472e-014 -2.70347e-014
rhumerus 19.7602 -47.5851 -45.6552
rradius 125.256
rwrist -16.9192
rhand -54.219 -44.1285
rfingers 7.12502
rthumb -26.6329 -72.2752
lclavicle -4.13472e-014 -2.70347e-014
lhumerus -58.5294 0.17766 78.1553
lradius 38.1589
lwrist -15.9436
lhand -28.3107 27.836
lfingers 7.12502
lthumb -1.68596 417.809
rfemur 8.25173 18.1533 35.9625
rtibia -4.33196
rfoot -26.1569 -21.8238
rtoes -7.08849
lfemur -32.9533 14.7591 -17.7991
ltibia 45.148
lfoot -35.1394 -2.60673
ltoes -32.7715
285
root -12.6743 15.812 1.55977 174.58 -62.6021 -165.719
lowerback 8.88532 -0.0784204 -0.479304
upperback -10.9422 0.0704198 6.63185
thorax -17.5626 0.456739 8.06153
lowerneck -12.4295 6.91314 11.7771
upperneck 27.7499 9.41617 -10.8598
head 12.3249 3.85286 -4.82363
rclavicle 5.36719e-015 -9.54166e-015
rhumerus 22.7444 -50.2238 -49.1963
rradius 125.878
rwrist -16.536
rhand -54.748 -46.7036
rfingers 7.12502
rthumb -27.1391 -74.7723
lclavicle 5.36719e-015 -9.54166e-015
lhumerus -58.1372 0.136786 78.3318
lradius 39.7339
lwrist -13.5216
lhand -28.4085 28.2083
lfingers 7.12502
lthumb -1.7804 418.181
rfemur 7.986 16.4797 36.0146
rtibia -4.23015
rfoot -25.4094 -20.6904
rtoes -6.74566
lfemur -31.9234 14.799 -17.5719
ltibia 47.8972
lfoot -33.5016 -2.82834
ltoes -34.0892
